<?xml version="1.0" encoding="utf-8"?>
<?xml-stylesheet type="text/xsl" href="rss1.xsl"?>
<rss version="2.0" xmlns:atom="http://www.w3.org/2005/Atom" xmlns:content="http://purl.org/rss/1.0/modules/content/" xmlns:dc="http://purl.org/dc/elements/1.1/" xmlns:media="http://search.yahoo.com/mrss/">
<channel>
 <title>Getty</title>
 <link>http://www.gettyimg.com/</link>
 <atom:link href="http://www.gettyimg.com/" rel="self" type="application/rss+xml" />

 
                <item>
                <title><![CDATA[【HD Live Performances】WEB-RiP - Playboi Carti - 2023 Wireless Festival - Finsbury Park (720p)]]></title>
                <link><![CDATA[https://sharemania.us/threads/playboi-carti-2023-wireless-festival-finsbury-park-720p.232229/]]></link>
                <description><![CDATA[<article>
<blockquote class="messageText SelectQuoteContainer ugc baseHtml">
<b><img src="https://i.imgur.com/c0ReVjZ.jpg" class="bbCodeImage LbImage" alt="[​IMG]" data-url="https://i.imgur.com/c0ReVjZ.jpg" style=""></b><br>
<br>
<span style="font-size: 18px"><br>
<b><span style="font-size: 18px"><b>Setlist</b></span></b></span><br>
<b><span style="font-size: 18px">1.- Long Time (Intro)</span></b><br>
<span style="font-size: 18px"><b>2.- Pop Out (Unreleased)</b><br>
<b>2.1- R.I.P <br>
3.-Rockstar Made<br>
4.-R.I.P Fredo<br>
5.-Stop Breathing<br>
6.-JumpOutTheHouse<br>
7.-Off the Grid<br>
8.-Sky<br>
9.-Wokeuplikethis*<br>
10.-No Sl33p<br>
11.-Teen X<br>
12.-FlatBed Freestyle<br>
13.-New N3on<br>
14.-Miss The Rage<br>
15.-Flex Up<br>
16.-On That Time<br>
17.-Location<br>
18.-Shoota<br>
19.-Vamp Anthem<br>
20.-Die4Guy<br>
21.-F33l Lik3 Dyin<br>
<br>
<div class="bbCodeBlock bbCodeCode">
<div class="type">Code:</div>
<pre>General
Complete name                            : F:\carti full set wireless 2023.mp4
Format                                   : MPEG-4
Format profile                           : Base Media / Version 2
Codec ID                                 : mp42 (mp41/isom)
File size                                : 1,91 GiB
Duration                                 : 1 h 5 min
Overall bit rate                         : 4 153 kb/s
Frame rate                               : 30,000 FPS
Encoded date                             : 2023-07-11 11:16:26 UTC
Tagged date                              : 2023-07-11 12:35:40 UTC

Vídeo
ID                                       : 1
Format                                   : AVC
Format/Info                              : Advanced Video Codec
Format profile                           : Main@L3.2
Format settings                          : CABAC / 1 Ref Frames
Format settings, CABAC                   : Sí
Format settings, Reference frames        : 1 fotograma
Format settings, GOP                     : M=1, N=30
Codec ID                                 : avc1
Codec ID/Info                            : Advanced Video Coding
Duration                                 : 1 h 5 min
Bit rate                                 : 3 954 kb/s
Width                                    : 1 280 píxeles
Height                                   : 720 píxeles
Display aspect ratio                     : 16:9
Frame rate mode                          : Constante
Frame rate                               : 30,000 FPS
Color space                              : YUV
Chroma subsampling                       : 4:2:0
Bit depth                                : 8 bits
Scan type                                : Progresivo
Bits/(Pixel*Frame)                       : 0.143
Stream size                              : 1,82 GiB (95%)
Encoded date                             : 2023-07-11 12:30:31 UTC
Tagged date                              : 2023-07-11 12:30:31 UTC
mdhd_Duration                            : 3943267
Codec configuration box                  : avcC

Audio
ID                                       : 2
Format                                   : AAC LC
Format/Info                              : Advanced Audio Codec Low Complexity
Codec ID                                 : mp4a-40-2
Duration                                 : 1 h 5 min
Bit rate mode                            : Constante
Bit rate                                 : 192 kb/s
Channel(s)                               : 2 canales
Channel layout                           : L R
Sampling rate                            : 48,0 kHz
Frame rate                               : 46,875 FPS (1024 SPF)
Compression mode                         : Con pérdida
Stream size                              : 91,9 MiB (5%)
Encoded date                             : 2023-07-11 12:30:31 UTC
Tagged date                              : 2023-07-11 12:30:31 UTC
mdhd_Duration                            : 3943246</pre>
</div>
<div class="bbCodeBlock bbCodeVfcHH HiddenContent">
<div class="attribution type">Hidden Content:</div>
<blockquote>You must reply before you can see the hidden data contained here.</blockquote>
</div></b></span>
<div class="messageTextEndMarker">&nbsp;</div>
</blockquote>
</article>]]></description>
                <author><![CDATA[zxxmnkm]]></author>
                </item>

                </channel></rss>